<svg width="36" height="52" fill="none" xmlns="http://www.w3.org/2000/svg"><path d="M23.991 21.012L22.2 19.221l4.905-4.905 1.791 1.791-4.905 4.905zm7.483-4.905c0-.284-.1-.552-.3-.753l-3.316-3.315a1.05 1.05 0 00-.753-.301c-.285 0-.552.1-.753.301L4.822 33.57c-.2.2-.3.468-.3.752 0 .285.1.553.3.754l3.315 3.314c.201.201.47.302.754.302.284 0 .552-.1.753-.302l21.53-21.529c.2-.2.3-.468.3-.753zm-22.617-3.18l-.502-1.641-.502 1.64-1.64.503 1.64.502.502 1.64.502-1.64 1.64-.502-1.64-.503zm5.86 2.711l-1.005-3.28-1.004 3.28-3.282 1.005 3.282 1.004 1.004 3.282 1.005-3.282 3.28-1.004-3.28-1.005zm15.569 8.003L29.784 22l-.503 1.64-1.64.503 1.64.502.503 1.64.502-1.64 1.64-.502-1.64-.502zM19.572 12.926l-.503-1.64-.502 1.64-1.64.503 1.64.502.502 1.64.503-1.64 1.64-.502-1.64-.503z" fill="#7586FF"/></svg>