<svg width="36" height="52" fill="none" xmlns="http://www.w3.org/2000/svg"><path d="M29.895 34.074c.234-.117.234-.293 0-.41l-2.754-1.406c-.118 0-.235-.059-.41-.059-.176 0-.294.059-.41.059l-7.91 3.926a1.104 1.104 0 01-.47.117c-.117 0-.293-.059-.41-.117l-7.91-3.926c-.117 0-.234-.059-.41-.059-.176 0-.293.059-.41.059l-2.754 1.406c-.234.117-.234.293 0 .41l11.484 5.742c.117.059.293.059.469.059.117 0 .293 0 .41-.059l11.485-5.742zm0-7.968l-2.754-1.407c-.118-.058-.235-.058-.41-.058-.176 0-.294 0-.41.058l-7.91 3.926a1.086 1.086 0 01-.411.117c-.176 0-.352-.058-.469-.117l-7.91-3.926c-.117-.058-.234-.058-.41-.058-.176 0-.293 0-.41.058l-2.754 1.406c-.234.118-.234.293 0 .41l11.484 5.743c.117.058.293.058.41.058.176 0 .352 0 .47-.058l11.483-5.742c.235-.118.235-.293 0-.41zm-23.848-6.68l11.484 5.273c.117.059.293.117.41.117.176 0 .352-.058.47-.117l11.483-5.273c.235-.117.235-.293 0-.41L18.41 13.742c-.117-.058-.293-.058-.41-.058-.176 0-.352 0-.469.058L6.047 19.016c-.234.117-.234.293 0 .41z" fill="#7586FF"/></svg>