<svg width="36" height="52" fill="none" xmlns="http://www.w3.org/2000/svg"><path d="M21.82 26.286a4.294 4.294 0 01-4.286 4.285 4.294 4.294 0 01-4.285-4.285A4.294 4.294 0 0117.534 22a4.294 4.294 0 014.286 4.286zm8.571-1.825a.61.61 0 00-.485-.603l-3.064-.468a9.222 9.222 0 00-.686-1.641c.57-.787 1.189-1.524 1.758-2.294a.632.632 0 00.134-.385.57.57 0 00-.117-.368c-.704-.988-1.876-2.026-2.763-2.846a.66.66 0 00-.418-.167.57.57 0 00-.402.15l-2.377 1.792a9.833 9.833 0 00-1.507-.62l-.469-3.08c-.033-.285-.301-.502-.603-.502h-3.716c-.301 0-.536.2-.603.468-.268 1.005-.368 2.093-.485 3.114-.52.168-1.038.385-1.524.636l-2.31-1.791a.745.745 0 00-.435-.167c-.57 0-2.83 2.444-3.231 2.996-.084.117-.15.235-.15.385 0 .151.066.285.167.402a40.41 40.41 0 011.79 2.31 8.857 8.857 0 00-.652 1.54l-3.114.47c-.251.05-.452.35-.452.602v3.716c0 .285.201.553.486.603l3.063.452a8.88 8.88 0 00.687 1.658c-.57.786-1.189 1.523-1.758 2.293a.652.652 0 00-.017.77c.703.971 1.875 2.01 2.762 2.813a.6.6 0 00.419.184c.15 0 .301-.05.418-.15l2.36-1.792a9.82 9.82 0 001.508.62l.468 3.08c.034.284.302.502.603.502h3.716a.613.613 0 00.603-.469c.268-1.004.368-2.093.486-3.114a10.095 10.095 0 001.523-.636l2.31 1.808a.85.85 0 00.436.15c.569 0 2.829-2.46 3.23-2.996a.56.56 0 00.151-.385.66.66 0 00-.167-.418c-.62-.754-1.222-1.49-1.791-2.31.268-.486.468-.988.653-1.524l3.097-.469c.268-.05.468-.351.468-.603v-3.716z" fill="#7586FF"/></svg>